# xmcd
#
# Track frame offsets:
#  150
#  12829
#  33177
#  45733
#  68361
#  83026
#  106138
#  120299
#  144427
#  163314
#  178200
#
# Disc length: 2549 seconds
#
# Revision: 0
# Processed by: cddbd v1.5.2PL0 Copyright (c) Steve Scherf et al.
# Submitted via: AltoMP3_Maker 3.0
#
DISCID=8109f30b
DTITLE=Dennis Stroughmatt - Things I Might Have Been
DYEAR=1900
DGENRE=
TTITLE0=Drivin' Nails
TTITLE1=Burning Desire
TTITLE2=Evangeline
TTITLE3=Lost Highway
TTITLE4=Grand Mallet
TTITLE5=House of the Rising Sun
TTITLE6=Teala's Waltz
TTITLE7=Lonesome Day Blues
TTITLE8=Heart of a Clown
TTITLE9=Devil's Dream
TTITLE10=Things I Might Have Been
EXTD=
EXTT0=
EXTT1=
EXTT2=
EXTT3=
EXTT4=
EXTT5=
EXTT6=
EXTT7=
EXTT8=
EXTT9=
EXTT10=
PLAYORDER=
